<svg xmlns="http://www.w3.org/2000/svg" viewBox="0 0 24 24" fill="none" stroke="#00ffd1" stroke-width="1.5" stroke-linecap="round" stroke-linejoin="round">
  <path d="M4.5 16.5c-1.5 1.26-2 5-2 5s3.74-.5 5-2c.71-.84.7-2.13-.09-2.91a2.18 2.18 0 0 0-2.91-.09z"/>
  <path d="m12 15-3-3a22 22 0 0 1 2-3.95A12.88 12.88 0 0 1 22 2c0 5.5-5.5 11.5-11 11.5"/>
  <path d="m15 12 5 5c.67.67 1 1.5 1 2.5 0 .5 0 .5-2 2.5-2 2-2 2-2.5 2a3.44 3.44 0 0 1-2.5-1l-5-5"/>
  <path d="m8 9 3 3"/>
  <path d="m14.5 17.5 2 2"/>
  <path d="M18.5 13.5c.83-.83 2.17-.83 3 0 .83.83.83 2.17 0 3-.83.83-2.17.83-3 0-.83-.83-.83-2.17 0-3z"/>
</svg> 